<?xml version="1.0" encoding="UTF-8"?>
<svg xmlns="http://www.w3.org/2000/svg" viewBox="0 0 396.54 325.12">
  <defs>
    <style>
      .cls-1, .cls-2 {
        fill: #fff;
      }

      .cls-3 {
        fill: #a8d9ff;
      }

      .cls-3, .cls-4, .cls-2 {
        stroke: #000;
        stroke-miterlimit: 10;
      }

      .cls-4 {
        fill: #187aff;
      }
    </style>
  </defs>
  <g id="_Слой_2-2" data-name="Слой 2">
    <g>
      <path class="cls-2" d="m353.09.5v245.55s-93.18-10.16-154.82,45.92c-61.64-56.08-154.82-45.92-154.82-45.92V.5c111.66.5,154.82,51.69,154.82,51.69,0,0,43.16-51.19,154.82-51.69Z"/>
      <path class="cls-3" d="m374.82,26.77v241.01c-127.83,1.52-176.55,44.97-176.55,44.97,0,0-48.72-43.45-176.55-44.97V26.77h10.11v229.39s102.48-1.52,166.44,49.51c63.96-51.03,166.44-49.51,166.44-49.51V26.77h10.11Z"/>
      <path class="cls-4" d="m396.04,56.07v237.23c-87.16.25-158.15,11.87-170.78,21.72-12.63,9.85-26.99,9.6-26.99,9.6,0,0-14.36.25-26.99-9.6-12.63-9.85-83.62-21.47-170.78-21.72V56.07h10.11v225.86s131.87,4.54,162.19,24.75c15.14,11.34,25.47,10.49,25.47,10.49,0,0,10.33.85,25.47-10.49,30.32-20.21,162.19-24.75,162.19-24.75V56.07h10.11Z"/>
      <line class="cls-2" x1="198.27" y1="70.1" x2="198.27" y2="272.08"/>
      <g>
        <g>
          <path class="cls-1" d="m71.44,33.6s70.81,6.54,110.59,36.49"/>
          <path d="m71.44,33.6c36.32,2.82,81.72,13.48,110.59,36.49-31.93-21.28-73.09-30.47-110.59-36.49h0Z"/>
        </g>
        <g>
          <path class="cls-1" d="m71.44,56.07s70.81,6.54,110.59,36.49"/>
          <path d="m71.44,56.07c36.32,2.82,81.72,13.48,110.59,36.49-31.93-21.28-73.09-30.47-110.59-36.49h0Z"/>
        </g>
        <g>
          <path class="cls-1" d="m71.44,78.54s70.81,6.54,110.59,36.49"/>
          <path d="m71.44,78.54c36.32,2.82,81.72,13.48,110.59,36.49-31.93-21.28-73.09-30.47-110.59-36.49h0Z"/>
        </g>
        <g>
          <path class="cls-1" d="m71.44,101.01s70.81,6.54,110.59,36.49"/>
          <path d="m71.44,101.01c36.32,2.82,81.72,13.48,110.59,36.49-31.93-21.28-73.09-30.47-110.59-36.49h0Z"/>
        </g>
        <g>
          <path class="cls-1" d="m71.44,123.48s70.81,6.54,110.59,36.49"/>
          <path d="m71.44,123.48c36.32,2.82,81.72,13.48,110.59,36.49-31.93-21.28-73.09-30.47-110.59-36.49h0Z"/>
        </g>
        <g>
          <path class="cls-1" d="m71.44,145.95s70.81,6.54,110.59,36.49"/>
          <path d="m71.44,145.95c36.32,2.82,81.72,13.48,110.59,36.49-31.93-21.28-73.09-30.47-110.59-36.49h0Z"/>
        </g>
        <g>
          <path class="cls-1" d="m71.44,168.42s70.81,6.54,110.59,36.49"/>
          <path d="m71.44,168.42c36.32,2.82,81.72,13.48,110.59,36.49-31.93-21.28-73.09-30.47-110.59-36.49h0Z"/>
        </g>
        <g>
          <path class="cls-1" d="m71.44,190.89s70.81,6.54,110.59,36.49"/>
          <path d="m71.44,190.89c36.32,2.82,81.72,13.48,110.59,36.49-31.93-21.28-73.09-30.47-110.59-36.49h0Z"/>
        </g>
        <g>
          <path class="cls-1" d="m71.44,213.36s70.81,6.54,110.59,36.49"/>
          <path d="m71.44,213.36c36.32,2.82,81.72,13.48,110.59,36.49-31.93-21.28-73.09-30.47-110.59-36.49h0Z"/>
        </g>
      </g>
      <g>
        <g>
          <path class="cls-1" d="m329.26,33.6s-70.81,6.54-110.59,36.49"/>
          <path d="m329.26,33.6c-37.49,6.03-78.66,15.22-110.59,36.49,28.86-23.01,74.25-33.67,110.59-36.49h0Z"/>
        </g>
        <g>
          <path class="cls-1" d="m329.26,56.07s-70.81,6.54-110.59,36.49"/>
          <path d="m329.26,56.07c-37.49,6.03-78.66,15.22-110.59,36.49,28.86-23.01,74.25-33.67,110.59-36.49h0Z"/>
        </g>
        <g>
          <path class="cls-1" d="m329.26,78.54s-70.81,6.54-110.59,36.49"/>
          <path d="m329.26,78.54c-37.49,6.03-78.66,15.22-110.59,36.49,28.86-23.01,74.25-33.67,110.59-36.49h0Z"/>
        </g>
        <g>
          <path class="cls-1" d="m329.26,101.01s-70.81,6.54-110.59,36.49"/>
          <path d="m329.26,101.01c-37.49,6.03-78.66,15.22-110.59,36.49,28.86-23.01,74.25-33.67,110.59-36.49h0Z"/>
        </g>
        <g>
          <path class="cls-1" d="m329.26,123.48s-70.81,6.54-110.59,36.49"/>
          <path d="m329.26,123.48c-37.49,6.03-78.66,15.22-110.59,36.49,28.86-23.01,74.25-33.67,110.59-36.49h0Z"/>
        </g>
        <g>
          <path class="cls-1" d="m329.26,145.95s-70.81,6.54-110.59,36.49"/>
          <path d="m329.26,145.95c-37.49,6.03-78.66,15.22-110.59,36.49,28.86-23.01,74.25-33.67,110.59-36.49h0Z"/>
        </g>
        <g>
          <path class="cls-1" d="m329.26,168.42s-70.81,6.54-110.59,36.49"/>
          <path d="m329.26,168.42c-37.49,6.03-78.66,15.22-110.59,36.49,28.86-23.01,74.25-33.67,110.59-36.49h0Z"/>
        </g>
        <g>
          <path class="cls-1" d="m329.26,190.89s-70.81,6.54-110.59,36.49"/>
          <path d="m329.26,190.89c-37.49,6.03-78.66,15.22-110.59,36.49,28.86-23.01,74.25-33.67,110.59-36.49h0Z"/>
        </g>
        <g>
          <path class="cls-1" d="m329.26,213.36s-70.81,6.54-110.59,36.49"/>
          <path d="m329.26,213.36c-37.49,6.03-78.66,15.22-110.59,36.49,28.86-23.01,74.25-33.67,110.59-36.49h0Z"/>
        </g>
      </g>
    </g>
  </g>
</svg>
